<?xml version="1.0" encoding="UTF-8"?>
<!DOCTYPE svg PUBLIC "-//W3C//DTD SVG 1.1//EN" "http://www.w3.org/Graphics/SVG/1.1/DTD/svg11.dtd">
<svg xmlns="http://www.w3.org/2000/svg" version="1.1" width="103px" height="86px" style="shape-rendering:geometricPrecision; text-rendering:geometricPrecision; image-rendering:optimizeQuality; fill-rule:evenodd; clip-rule:evenodd" xmlns:xlink="http://www.w3.org/1999/xlink">
<g><path style="opacity:1" fill="#009c75" d="M 11.5,-0.5 C 28.5,-0.5 45.5,-0.5 62.5,-0.5C 61.7377,2.94807 61.571,6.28141 62,9.5C 64.6481,11.1492 66.9814,13.1492 69,15.5C 70.15,16.4239 71.15,16.4239 72,15.5C 73.8087,19.449 76.6421,22.1156 80.5,23.5C 81.4916,23.3284 82.1583,23.6618 82.5,24.5C 76.2639,26.0979 72.2639,23.9312 70.5,18C 65.2286,16.144 62.5619,17.9774 62.5,23.5C 61.325,23.719 60.325,23.3857 59.5,22.5C 61.1298,19.7239 61.7965,16.7239 61.5,13.5C 59.076,13.1924 56.7427,13.5258 54.5,14.5C 53.4867,16.5266 52.4867,18.5266 51.5,20.5C 48.0795,20.5168 44.7462,20.6835 41.5,21C 41.6927,17.8427 41.3593,14.676 40.5,11.5C 39.6879,10.0069 38.3545,9.34024 36.5,9.5C 30.5918,10.4264 24.9251,12.093 19.5,14.5C 18.6143,15.325 18.281,16.325 18.5,17.5C 18.4023,14.4512 18.4023,11.2845 18.5,8C 17.7734,6.60119 17.2734,5.10119 17,3.5C 15.6012,3.49875 14.1012,3.16542 12.5,2.5C 11.6143,1.67504 11.281,0.675044 11.5,-0.5 Z"/></g>
<g><path style="opacity:1" fill="#1a8b73" d="M -0.5,-0.5 C 0.166667,-0.5 0.833333,-0.5 1.5,-0.5C 2.7175,0.161445 4.05084,0.828112 5.5,1.5C 5.29069,2.08605 4.95735,2.58605 4.5,3C 5.78387,3.68379 6.95054,3.51712 8,2.5C 8.49001,3.79323 8.65668,5.12656 8.5,6.5C 9.5,6.5 10.5,6.5 11.5,6.5C 12.1383,8.46001 12.1383,10.2933 11.5,12C 13.0984,14.8243 13.4317,17.6577 12.5,20.5C 8.43991,21.1518 6.43991,19.4851 6.5,15.5C 2.86488,15.3444 2.53154,14.1777 5.5,12C 3.37156,11.3448 1.37156,10.5114 -0.5,9.5C -0.5,6.16667 -0.5,2.83333 -0.5,-0.5 Z"/></g>
<g><path style="opacity:1" fill="#008068" d="M 86.5,3.5 C 86.5792,4.93047 86.2458,6.26381 85.5,7.5C 86.0253,8.19238 86.6919,8.69238 87.5,9C 85.4277,11.9666 85.4277,14.6333 87.5,17C 87.0426,17.414 86.7093,17.914 86.5,18.5C 88.7126,21.075 89.0459,23.9083 87.5,27C 88.2181,30.4605 88.7181,33.9605 89,37.5C 90.487,38.2529 90.6537,39.0862 89.5,40C 91.0037,41.4907 91.8371,43.324 92,45.5C 92.7175,44.5494 93.5509,44.3828 94.5,45C 96.8909,48.6996 99.5576,52.1996 102.5,55.5C 102.5,59.8333 102.5,64.1667 102.5,68.5C 100.051,69.0574 97.7175,69.0574 95.5,68.5C 95.9281,64.309 96.2615,60.1423 96.5,56C 95.0714,52.2371 92.5714,49.4037 89,47.5C 87.8777,45.5795 87.0444,43.5795 86.5,41.5C 85.5,41.5 84.5,41.5 83.5,41.5C 83.7066,38.7607 84.7066,36.4274 86.5,34.5C 84.187,31.1983 83.8536,27.6983 85.5,24C 83.051,18.8981 81.051,13.5648 79.5,8C 80.0069,5.65866 81.1735,5.15866 83,6.5C 83.4224,4.5743 84.5891,3.5743 86.5,3.5 Z"/></g>
<g><path style="opacity:1" fill="#00906e" d="M 62.5,-0.5 C 66.1667,-0.5 69.8333,-0.5 73.5,-0.5C 72.5256,3.70383 72.5256,8.03717 73.5,12.5C 74.6554,13.9505 76.1554,14.9505 78,15.5C 79.1445,18.0804 79.9778,20.7471 80.5,23.5C 76.6421,22.1156 73.8087,19.449 72,15.5C 71.15,16.4239 70.15,16.4239 69,15.5C 66.9814,13.1492 64.6481,11.1492 62,9.5C 61.571,6.28141 61.7377,2.94807 62.5,-0.5 Z"/></g>
<g><path style="opacity:1" fill="#007963" d="M 86.5,-0.5 C 89.1667,-0.5 91.8333,-0.5 94.5,-0.5C 96.315,1.46845 96.815,3.80178 96,6.5C 95.2496,7.12576 94.4162,7.62576 93.5,8C 94.0223,11.2667 94.3557,14.6 94.5,18C 94.0556,19.7618 93.5556,19.5951 93,17.5C 92.6393,20.5252 92.1393,23.5252 91.5,26.5C 91.5288,28.0293 92.1955,29.196 93.5,30C 93.3842,31.2682 93.0509,32.6015 92.5,34C 96.8822,34.0027 98.5489,36.1694 97.5,40.5C 99.1667,40.5 100.833,40.5 102.5,40.5C 102.5,45.5 102.5,50.5 102.5,55.5C 99.5576,52.1996 96.8909,48.6996 94.5,45C 93.5509,44.3828 92.7175,44.5494 92,45.5C 91.8371,43.324 91.0037,41.4907 89.5,40C 90.6537,39.0862 90.487,38.2529 89,37.5C 88.7181,33.9605 88.2181,30.4605 87.5,27C 89.0459,23.9083 88.7126,21.075 86.5,18.5C 86.7093,17.914 87.0426,17.414 87.5,17C 85.4277,14.6333 85.4277,11.9666 87.5,9C 86.6919,8.69238 86.0253,8.19238 85.5,7.5C 86.2458,6.26381 86.5792,4.93047 86.5,3.5C 86.5,2.16667 86.5,0.833333 86.5,-0.5 Z"/></g>
<g><path style="opacity:1" fill="#00735d" d="M 94.5,-0.5 C 97.1667,-0.5 99.8333,-0.5 102.5,-0.5C 102.5,13.1667 102.5,26.8333 102.5,40.5C 100.833,40.5 99.1667,40.5 97.5,40.5C 98.5489,36.1694 96.8822,34.0027 92.5,34C 93.0509,32.6015 93.3842,31.2682 93.5,30C 92.1955,29.196 91.5288,28.0293 91.5,26.5C 92.1393,23.5252 92.6393,20.5252 93,17.5C 93.5556,19.5951 94.0556,19.7618 94.5,18C 94.3557,14.6 94.0223,11.2667 93.5,8C 94.4162,7.62576 95.2496,7.12576 96,6.5C 96.815,3.80178 96.315,1.46845 94.5,-0.5 Z"/></g>
<g><path style="opacity:1" fill="#07bd82" d="M 40.5,11.5 C 40.6602,13.1992 40.4935,14.8659 40,16.5C 37.9481,18.0585 35.7815,19.3918 33.5,20.5C 28.0082,22.6008 26.8415,21.6008 30,17.5C 32.6073,16.8767 35.1073,16.21 37.5,15.5C 38.404,14.791 38.7373,13.791 38.5,12.5C 33.0219,12.369 27.6886,13.2023 22.5,15C 21.0267,15.7096 20.3601,16.8762 20.5,18.5C 24.1859,18.13 25.1859,19.4633 23.5,22.5C 22.5,23.8333 21.5,23.8333 20.5,22.5C 20.573,20.9731 19.9063,19.9731 18.5,19.5C 18.5,18.8333 18.5,18.1667 18.5,17.5C 18.281,16.325 18.6143,15.325 19.5,14.5C 24.9251,12.093 30.5918,10.4264 36.5,9.5C 38.3545,9.34024 39.6879,10.0069 40.5,11.5 Z"/></g>
<g><path style="opacity:1" fill="#06ae83" d="M 40.5,11.5 C 41.3593,14.676 41.6927,17.8427 41.5,21C 44.7462,20.6835 48.0795,20.5168 51.5,20.5C 48.5352,21.2098 45.5352,22.2098 42.5,23.5C 39.2169,22.673 35.8835,22.3396 32.5,22.5C 32.8333,21.8333 33.1667,21.1667 33.5,20.5C 35.7815,19.3918 37.9481,18.0585 40,16.5C 40.4935,14.8659 40.6602,13.1992 40.5,11.5 Z"/></g>
<g><path style="opacity:1" fill="#7ce9ca" d="M 37.5,15.5 C 35.1073,16.21 32.6073,16.8767 30,17.5C 26.8415,21.6008 28.0082,22.6008 33.5,20.5C 33.1667,21.1667 32.8333,21.8333 32.5,22.5C 32.6716,23.4916 32.3382,24.1583 31.5,24.5C 31.5299,23.5028 31.0299,22.8361 30,22.5C 27.528,23.218 25.3613,23.218 23.5,22.5C 25.1859,19.4633 24.1859,18.13 20.5,18.5C 20.3601,16.8762 21.0267,15.7096 22.5,15C 27.6886,13.2023 33.0219,12.369 38.5,12.5C 38.7373,13.791 38.404,14.791 37.5,15.5 Z"/></g>
<g><path style="opacity:1" fill="#28db93" d="M 37.5,15.5 C 34.8127,15.3359 32.146,15.5026 29.5,16C 28.0702,20.0339 26.7368,20.2006 25.5,16.5C 24.2322,17.4279 22.8989,17.5946 21.5,17C 26.0697,15.5185 30.7364,14.3519 35.5,13.5C 36.7133,13.7472 37.38,14.4138 37.5,15.5 Z"/></g>
<g><path style="opacity:1" fill="#19ca88" d="M 82.5,24.5 C 83.4614,26.2646 83.7947,28.2646 83.5,30.5C 82.5416,30.9528 81.7083,31.6195 81,32.5C 80.9633,34.9739 80.13,36.9739 78.5,38.5C 76.6231,37.3409 76.1231,35.6742 77,33.5C 77.3333,34.5 77.6667,35.5 78,36.5C 78.5725,34.3594 79.4058,32.3594 80.5,30.5C 82.8954,28.7505 82.8954,27.0839 80.5,25.5C 78.0514,25.98 75.8847,26.98 74,28.5C 72.49,23.5619 70.1566,23.2286 67,27.5C 64.8784,24.8165 63.3784,25.1499 62.5,28.5C 58.5484,30.3037 57.5484,29.3037 59.5,25.5C 58.1266,25.6567 56.7932,25.49 55.5,25C 56.5822,23.6703 57.2488,22.1703 57.5,20.5C 56.7784,20.0825 56.2784,19.4158 56,18.5C 54.0073,20.8175 52.8406,23.4842 52.5,26.5C 53.1239,26.9169 53.4573,27.5836 53.5,28.5C 52.6379,30.5104 52.1379,32.5104 52,34.5C 53.7328,36.6015 55.7328,36.9348 58,35.5C 58.7083,36.3805 59.5416,37.0472 60.5,37.5C 50.5541,39.4753 40.2208,40.1419 29.5,39.5C 28.1667,35.5 28.1667,31.5 29.5,27.5C 27.6096,27.2965 26.1096,27.9632 25,29.5C 24.5291,31.2464 23.8624,32.913 23,34.5C 22.6664,32.1527 22.833,29.8194 23.5,27.5C 26.0609,26.0823 28.7276,25.0823 31.5,24.5C 32.3382,24.1583 32.6716,23.4916 32.5,22.5C 35.8835,22.3396 39.2169,22.673 42.5,23.5C 45.5352,22.2098 48.5352,21.2098 51.5,20.5C 52.4867,18.5266 53.4867,16.5266 54.5,14.5C 56.7427,13.5258 59.076,13.1924 61.5,13.5C 61.7965,16.7239 61.1298,19.7239 59.5,22.5C 60.325,23.3857 61.325,23.719 62.5,23.5C 62.5619,17.9774 65.2286,16.144 70.5,18C 72.2639,23.9312 76.2639,26.0979 82.5,24.5 Z"/></g>
<g><path style="opacity:1" fill="#7ae6cb" d="M 57.5,20.5 C 58.4132,18.9139 58.4132,17.4139 57.5,16C 58.635,15.2506 59.635,15.4173 60.5,16.5C 59.9649,18.261 58.9649,19.5943 57.5,20.5 Z"/></g>
<g><path style="opacity:1" fill="#71e6c1" d="M 67.5,18.5 C 69.2726,19.3143 69.7726,20.6476 69,22.5C 67.9887,23.3366 66.8221,23.67 65.5,23.5C 65.3915,21.4862 66.0582,19.8195 67.5,18.5 Z"/></g>
<g><path style="opacity:1" fill="#60e0b6" d="M 52.5,26.5 C 52.2927,29.2406 51.2927,31.5739 49.5,33.5C 49.7373,32.209 49.404,31.209 48.5,30.5C 45.8749,29.5595 45.8749,28.3928 48.5,27C 45.0699,26.3622 43.7366,27.8622 44.5,31.5C 42.2157,30.3226 41.8823,28.6559 43.5,26.5C 44.9732,23.5899 47.1399,22.9233 50,24.5C 50.3333,25.8333 50.6667,27.1667 51,28.5C 51.2784,27.5842 51.7784,26.9175 52.5,26.5 Z"/></g>
<g><path style="opacity:1" fill="#87f0d7" d="M 31.5,24.5 C 28.7276,25.0823 26.0609,26.0823 23.5,27.5C 23.4142,26.5041 23.7476,25.6708 24.5,25C 26.8098,24.5034 29.1432,24.3367 31.5,24.5 Z"/></g>
<g><path style="opacity:1" fill="#7be7ca" d="M 57.5,20.5 C 57.2488,22.1703 56.5822,23.6703 55.5,25C 56.7932,25.49 58.1266,25.6567 59.5,25.5C 57.5484,29.3037 58.5484,30.3037 62.5,28.5C 61.9862,30.3664 61.3195,32.1997 60.5,34C 60.6667,34.5 60.8333,35 61,35.5C 61.2784,34.5842 61.7784,33.9175 62.5,33.5C 62.5,34.5 62.5,35.5 62.5,36.5C 61.8333,36.8333 61.1667,37.1667 60.5,37.5C 59.5416,37.0472 58.7083,36.3805 58,35.5C 55.7328,36.9348 53.7328,36.6015 52,34.5C 52.1379,32.5104 52.6379,30.5104 53.5,28.5C 53.4573,27.5836 53.1239,26.9169 52.5,26.5C 52.8406,23.4842 54.0073,20.8175 56,18.5C 56.2784,19.4158 56.7784,20.0825 57.5,20.5 Z"/></g>
<g><path style="opacity:1" fill="#58e1b4" d="M 39.5,30.5 C 39.3178,35.7937 38.8178,35.7937 38,30.5C 37.2571,32.4406 37.4238,34.2739 38.5,36C 37.9056,36.4643 37.2389,36.631 36.5,36.5C 36.5,35.1667 35.8333,34.5 34.5,34.5C 33.438,32.9008 33.438,31.2341 34.5,29.5C 34.7565,27.2239 36.0898,26.0572 38.5,26C 37.5,25.6667 36.5,25.3333 35.5,25C 40.2718,24.1896 41.6052,26.0229 39.5,30.5 Z"/></g>
<g><path style="opacity:1" fill="#9eeee1" d="M 48.5,30.5 C 47.0413,30.4326 45.7079,30.7659 44.5,31.5C 43.7366,27.8622 45.0699,26.3622 48.5,27C 45.8749,28.3928 45.8749,29.5595 48.5,30.5 Z"/></g>
<g><path style="opacity:1" fill="#61dcb6" d="M 20.5,22.5 C 21.5,23.8333 22.5,23.8333 23.5,22.5C 22.0698,26.3544 20.4031,30.0211 18.5,33.5C 18.9608,29.7878 19.6275,26.1211 20.5,22.5 Z"/></g>
<g><path style="opacity:1" fill="#69e4bf" d="M 80.5,30.5 C 80.5,30.1667 80.5,29.8333 80.5,29.5C 80.631,28.7611 80.4643,28.0944 80,27.5C 78.9207,29.3937 77.5874,29.727 76,28.5C 73.5634,30.9503 72.73,33.6169 73.5,36.5C 73.44,37.0431 73.1067,37.3764 72.5,37.5C 71.7189,36.2713 71.2189,34.938 71,33.5C 67.0452,39.184 64.7119,38.5174 64,31.5C 63.7216,32.4158 63.2216,33.0825 62.5,33.5C 61.7784,33.9175 61.2784,34.5842 61,35.5C 60.8333,35 60.6667,34.5 60.5,34C 61.3195,32.1997 61.9862,30.3664 62.5,28.5C 63.3784,25.1499 64.8784,24.8165 67,27.5C 70.1566,23.2286 72.49,23.5619 74,28.5C 75.8847,26.98 78.0514,25.98 80.5,25.5C 82.8954,27.0839 82.8954,28.7505 80.5,30.5 Z"/></g>
<g><path style="opacity:1" fill="#1ad083" d="M 80.5,29.5 C 79.2101,30.0577 78.3768,31.0577 78,32.5C 77.2825,31.5494 76.4491,31.3828 75.5,32C 74.4178,33.3297 73.7512,34.8297 73.5,36.5C 72.73,33.6169 73.5634,30.9503 76,28.5C 77.5874,29.727 78.9207,29.3937 80,27.5C 80.4643,28.0944 80.631,28.7611 80.5,29.5 Z"/></g>
<g><path style="opacity:1" fill="#25d890" d="M 31.5,24.5 C 29.1432,24.3367 26.8098,24.5034 24.5,25C 23.7476,25.6708 23.4142,26.5041 23.5,27.5C 22.0687,28.7804 21.4021,30.4471 21.5,32.5C 20.7677,33.8083 19.9344,35.1416 19,36.5C 18.5172,35.552 18.3505,34.552 18.5,33.5C 20.4031,30.0211 22.0698,26.3544 23.5,22.5C 25.3613,23.218 27.528,23.218 30,22.5C 31.0299,22.8361 31.5299,23.5028 31.5,24.5 Z"/></g>
<g><path style="opacity:1" fill="#3ad696" d="M 56.5,26.5 C 57.2389,26.369 57.9056,26.5357 58.5,27C 56.3225,29.764 55.3225,32.5974 55.5,35.5C 54.3892,32.3736 54.7226,29.3736 56.5,26.5 Z"/></g>
<g><path style="opacity:1" fill="#8cedd6" d="M 80.5,29.5 C 80.5,29.8333 80.5,30.1667 80.5,30.5C 79.4058,32.3594 78.5725,34.3594 78,36.5C 77.6667,35.5 77.3333,34.5 77,33.5C 76.1231,35.6742 76.6231,37.3409 78.5,38.5C 78.5,39.1667 78.1667,39.5 77.5,39.5C 76.0337,38.653 75.2004,37.3197 75,35.5C 74.6174,36.056 74.1174,36.3893 73.5,36.5C 73.7512,34.8297 74.4178,33.3297 75.5,32C 76.4491,31.3828 77.2825,31.5494 78,32.5C 78.3768,31.0577 79.2101,30.0577 80.5,29.5 Z"/></g>
<g><path style="opacity:1" fill="#03886b" d="M 73.5,-0.5 C 77.8333,-0.5 82.1667,-0.5 86.5,-0.5C 86.5,0.833333 86.5,2.16667 86.5,3.5C 84.5891,3.5743 83.4224,4.5743 83,6.5C 81.1735,5.15866 80.0069,5.65866 79.5,8C 81.051,13.5648 83.051,18.8981 85.5,24C 83.8536,27.6983 84.187,31.1983 86.5,34.5C 84.7066,36.4274 83.7066,38.7607 83.5,41.5C 84.5,41.5 85.5,41.5 86.5,41.5C 87.0444,43.5795 87.8777,45.5795 89,47.5C 92.5714,49.4037 95.0714,52.2371 96.5,56C 96.2615,60.1423 95.9281,64.309 95.5,68.5C 97.7175,69.0574 100.051,69.0574 102.5,68.5C 102.5,69.5 102.5,70.5 102.5,71.5C 101.391,71.5569 100.391,71.8902 99.5,72.5C 98.391,72.5569 97.391,72.8902 96.5,73.5C 96.0831,72.8761 95.4164,72.5427 94.5,72.5C 92.484,73.1776 90.484,73.8443 88.5,74.5C 87.9522,72.4677 86.6188,71.4677 84.5,71.5C 89.4271,70.7134 91.5938,67.7134 91,62.5C 91.3768,61.0577 92.2101,60.0577 93.5,59.5C 94.6129,58.0536 94.7796,56.3869 94,54.5C 90.2625,50.718 86.4292,47.0514 82.5,43.5C 81.7542,42.2638 81.4208,40.9305 81.5,39.5C 81.5578,36.3356 82.2245,33.3356 83.5,30.5C 83.7947,28.2646 83.4614,26.2646 82.5,24.5C 82.1583,23.6618 81.4916,23.3284 80.5,23.5C 79.9778,20.7471 79.1445,18.0804 78,15.5C 76.1554,14.9505 74.6554,13.9505 73.5,12.5C 72.5256,8.03717 72.5256,3.70383 73.5,-0.5 Z"/></g>
<g><path style="opacity:1" fill="#79eccd" d="M 43.5,26.5 C 41.8823,28.6559 42.2157,30.3226 44.5,31.5C 44.5,32.8333 44.5,34.1667 44.5,35.5C 43.448,35.3505 42.448,35.5172 41.5,36C 42.8333,36.3333 44.1667,36.6667 45.5,37C 44.6667,37.1667 43.8333,37.3333 43,37.5C 40.7461,37.0405 38.5795,36.7072 36.5,36.5C 37.2389,36.631 37.9056,36.4643 38.5,36C 37.4238,34.2739 37.2571,32.4406 38,30.5C 38.8178,35.7937 39.3178,35.7937 39.5,30.5C 40.9999,29.3748 42.3332,28.0414 43.5,26.5 Z"/></g>
<g><path style="opacity:1" fill="#30877b" d="M 22.5,50.5 C 22.5,51.8333 22.5,53.1667 22.5,54.5C 21.7087,58.1501 19.3753,60.1501 15.5,60.5C 11.3144,57.9418 6.81444,57.2752 2,58.5C 1.14825,57.4293 0.314913,56.4293 -0.5,55.5C -0.5,45.5 -0.5,35.5 -0.5,25.5C 1.12377,25.6399 2.29044,24.9733 3,23.5C 3.24917,24.624 3.74917,25.624 4.5,26.5C 5.73619,25.7542 7.06953,25.4208 8.5,25.5C 8.57841,28.8518 9.24507,32.0185 10.5,35C 9.83333,35.6667 9.16667,36.3333 8.5,37C 10.032,37.6995 11.032,38.8662 11.5,40.5C 12.325,41.3857 13.325,41.719 14.5,41.5C 14.5,44.1667 14.5,46.8333 14.5,49.5C 16.6382,49.703 18.3049,50.703 19.5,52.5C 20.2652,51.3881 21.2652,50.7214 22.5,50.5 Z"/></g>
<g><path style="opacity:1" fill="#9df6e7" d="M 49.5,33.5 C 49.9059,35.1092 49.9059,36.4425 49.5,37.5C 48.218,36.0416 48.218,34.7082 49.5,33.5 Z"/></g>
<g><path style="opacity:1" fill="#82edd2" d="M 34.5,29.5 C 33.438,31.2341 33.438,32.9008 34.5,34.5C 35.8333,34.5 36.5,35.1667 36.5,36.5C 30.9169,38.3611 29.0836,36.3611 31,30.5C 31.9265,27.2942 33.0932,26.9608 34.5,29.5 Z"/></g>
<g><path style="opacity:1" fill="#23d38f" d="M 34.5,34.5 C 33.9924,36.2327 33.159,36.566 32,35.5C 31.3333,34.1667 31.3333,32.8333 32,31.5C 32.2355,33.1193 33.0689,34.1193 34.5,34.5 Z"/></g>
<g><path style="opacity:1" fill="#0ac983" d="M 73.5,36.5 C 74.1174,36.3893 74.6174,36.056 75,35.5C 75.2004,37.3197 76.0337,38.653 77.5,39.5C 77.1667,40.5 76.5,41.1667 75.5,41.5C 75.3893,40.8826 75.056,40.3826 74.5,40C 70.0629,39.4834 66.0629,38.3167 62.5,36.5C 62.5,35.5 62.5,34.5 62.5,33.5C 63.2216,33.0825 63.7216,32.4158 64,31.5C 64.7119,38.5174 67.0452,39.184 71,33.5C 71.2189,34.938 71.7189,36.2713 72.5,37.5C 73.1067,37.3764 73.44,37.0431 73.5,36.5 Z"/></g>
<g><path style="opacity:1" fill="#0e947b" d="M 1.5,-0.5 C 4.83333,-0.5 8.16667,-0.5 11.5,-0.5C 11.281,0.675044 11.6143,1.67504 12.5,2.5C 14.1012,3.16542 15.6012,3.49875 17,3.5C 17.2734,5.10119 17.7734,6.60119 18.5,8C 18.4023,11.2845 18.4023,14.4512 18.5,17.5C 18.5,18.1667 18.5,18.8333 18.5,19.5C 17.4138,19.62 16.7472,20.2867 16.5,21.5C 16.0774,27.1338 16.0774,32.8005 16.5,38.5C 21.6189,40.7222 24.6189,39.0556 25.5,33.5C 27.0585,35.8887 28.3919,38.3887 29.5,41C 33.0523,41.8775 36.3856,43.0442 39.5,44.5C 39.5,45.1667 39.1667,45.5 38.5,45.5C 34.2281,50.2221 30.5614,55.5554 27.5,61.5C 27.5861,59.323 28.2528,57.323 29.5,55.5C 27.7935,54.1274 26.4602,52.4607 25.5,50.5C 27.3245,42.6412 23.9912,38.9746 15.5,39.5C 12.828,33.472 11.828,27.1386 12.5,20.5C 13.4317,17.6577 13.0984,14.8243 11.5,12C 12.1383,10.2933 12.1383,8.46001 11.5,6.5C 10.5,6.5 9.5,6.5 8.5,6.5C 8.65668,5.12656 8.49001,3.79323 8,2.5C 6.95054,3.51712 5.78387,3.68379 4.5,3C 4.95735,2.58605 5.29069,2.08605 5.5,1.5C 4.05084,0.828112 2.7175,0.161445 1.5,-0.5 Z"/></g>
<g><path style="opacity:1" fill="#06ad83" d="M 18.5,19.5 C 19.9063,19.9731 20.573,20.9731 20.5,22.5C 19.6275,26.1211 18.9608,29.7878 18.5,33.5C 17.3871,34.9464 17.2204,36.6131 18,38.5C 20.9101,37.5497 22.0768,35.5497 21.5,32.5C 21.4021,30.4471 22.0687,28.7804 23.5,27.5C 22.833,29.8194 22.6664,32.1527 23,34.5C 23.8624,32.913 24.5291,31.2464 25,29.5C 26.1096,27.9632 27.6096,27.2965 29.5,27.5C 28.1667,31.5 28.1667,35.5 29.5,39.5C 40.2208,40.1419 50.5541,39.4753 60.5,37.5C 61.1667,37.1667 61.8333,36.8333 62.5,36.5C 66.0629,38.3167 70.0629,39.4834 74.5,40C 75.056,40.3826 75.3893,40.8826 75.5,41.5C 68.2158,40.4032 60.8825,40.2365 53.5,41C 51.8807,41.2355 50.8807,42.0689 50.5,43.5C 46.7657,43.3227 43.0991,43.6561 39.5,44.5C 36.3856,43.0442 33.0523,41.8775 29.5,41C 28.3919,38.3887 27.0585,35.8887 25.5,33.5C 24.6189,39.0556 21.6189,40.7222 16.5,38.5C 16.0774,32.8005 16.0774,27.1338 16.5,21.5C 16.7472,20.2867 17.4138,19.62 18.5,19.5 Z"/></g>
<g><path style="opacity:1" fill="#74e4c7" d="M 21.5,32.5 C 22.0768,35.5497 20.9101,37.5497 18,38.5C 17.2204,36.6131 17.3871,34.9464 18.5,33.5C 18.3505,34.552 18.5172,35.552 19,36.5C 19.9344,35.1416 20.7677,33.8083 21.5,32.5 Z"/></g>
<g><path style="opacity:1" fill="#019c79" d="M 83.5,30.5 C 82.2245,33.3356 81.5578,36.3356 81.5,39.5C 79.7376,41.7005 77.4042,42.8672 74.5,43C 67.9179,43.7203 61.2512,44.2203 54.5,44.5C 53.4324,43.5655 52.099,43.2322 50.5,43.5C 50.8807,42.0689 51.8807,41.2355 53.5,41C 60.8825,40.2365 68.2158,40.4032 75.5,41.5C 76.5,41.1667 77.1667,40.5 77.5,39.5C 78.1667,39.5 78.5,39.1667 78.5,38.5C 80.13,36.9739 80.9633,34.9739 81,32.5C 81.7083,31.6195 82.5416,30.9528 83.5,30.5 Z"/></g>
<g><path style="opacity:1" fill="#228a79" d="M -0.5,9.5 C 1.37156,10.5114 3.37156,11.3448 5.5,12C 2.53154,14.1777 2.86488,15.3444 6.5,15.5C 6.43991,19.4851 8.43991,21.1518 12.5,20.5C 11.828,27.1386 12.828,33.472 15.5,39.5C 23.9912,38.9746 27.3245,42.6412 25.5,50.5C 24.5,50.5 23.5,50.5 22.5,50.5C 21.2652,50.7214 20.2652,51.3881 19.5,52.5C 18.3049,50.703 16.6382,49.703 14.5,49.5C 14.5,46.8333 14.5,44.1667 14.5,41.5C 13.325,41.719 12.325,41.3857 11.5,40.5C 11.032,38.8662 10.032,37.6995 8.5,37C 9.16667,36.3333 9.83333,35.6667 10.5,35C 9.24507,32.0185 8.57841,28.8518 8.5,25.5C 7.06953,25.4208 5.73619,25.7542 4.5,26.5C 3.74917,25.624 3.24917,24.624 3,23.5C 2.29044,24.9733 1.12377,25.6399 -0.5,25.5C -0.5,20.1667 -0.5,14.8333 -0.5,9.5 Z"/></g>
<g><path style="opacity:1" fill="#86ead0" d="M 50.5,45.5 C 53.1667,46.5 53.1667,47.5 50.5,48.5C 48.5,48.5 47.5,49.5 47.5,51.5C 46.8333,51.5 46.5,51.1667 46.5,50.5C 46.7565,48.2239 48.0898,47.0572 50.5,47C 46.8436,46.1643 43.5102,46.831 40.5,49C 41.0944,49.4643 41.7611,49.631 42.5,49.5C 42.5,49.8333 42.5,50.1667 42.5,50.5C 38.4726,50.7192 37.8059,49.5525 40.5,47C 43.7256,45.8011 47.059,45.3011 50.5,45.5 Z"/></g>
<g><path style="opacity:1" fill="#16cd80" d="M 46.5,50.5 C 46.1667,50.5 45.8333,50.5 45.5,50.5C 44.9473,48.4482 43.9473,48.1148 42.5,49.5C 41.7611,49.631 41.0944,49.4643 40.5,49C 43.5102,46.831 46.8436,46.1643 50.5,47C 48.0898,47.0572 46.7565,48.2239 46.5,50.5 Z"/></g>
<g><path style="opacity:1" fill="#0eb47b" d="M 81.5,46.5 C 84.8926,48.0263 86.2259,50.693 85.5,54.5C 87.924,54.1924 90.2573,54.5258 92.5,55.5C 93.2458,56.7362 93.5792,58.0695 93.5,59.5C 92.2101,60.0577 91.3768,61.0577 91,62.5C 91.5938,67.7134 89.4271,70.7134 84.5,71.5C 84.7373,72.791 84.404,73.791 83.5,74.5C 82.6618,74.1583 82.3284,73.4916 82.5,72.5C 82.5,71.1667 81.8333,70.5 80.5,70.5C 82.5,69.8333 84.5,69.1667 86.5,68.5C 86.9297,64.9678 88.5963,61.6345 91.5,58.5C 91.3764,57.8933 91.0431,57.56 90.5,57.5C 90.1583,56.6618 89.4916,56.3284 88.5,56.5C 86.7056,55.7671 85.0389,54.7671 83.5,53.5C 83.8432,51.5168 83.1765,50.1834 81.5,49.5C 80.8333,49.5 80.1667,49.5 79.5,49.5C 79.5,48.5 79.5,47.5 79.5,46.5C 78.0413,46.4326 76.7079,46.7659 75.5,47.5C 76.9879,45.1546 78.9879,44.8212 81.5,46.5 Z"/></g>
<g><path style="opacity:1" fill="#bdf5ec" d="M 42.5,49.5 C 43.9473,48.1148 44.9473,48.4482 45.5,50.5C 44.609,49.8902 43.609,49.5569 42.5,49.5 Z"/></g>
<g><path style="opacity:1" fill="#02ad85" d="M 50.5,43.5 C 52.099,43.2322 53.4324,43.5655 54.5,44.5C 54.2964,47.5453 54.2964,50.3787 54.5,53C 59.5,53.6667 64.5,53.6667 69.5,53C 71.417,50.5015 73.0836,47.8349 74.5,45C 75.6667,44.8333 76.8333,44.6667 78,44.5C 79.6811,44.6083 80.8478,45.2749 81.5,46.5C 78.9879,44.8212 76.9879,45.1546 75.5,47.5C 75.5,47.8333 75.5,48.1667 75.5,48.5C 73.4872,49.4752 72.1539,51.1419 71.5,53.5C 64.1665,54.9632 56.8332,55.2965 49.5,54.5C 49.5172,52.4352 49.8505,50.4352 50.5,48.5C 53.1667,47.5 53.1667,46.5 50.5,45.5C 50.5,44.8333 50.5,44.1667 50.5,43.5 Z"/></g>
<g><path style="opacity:1" fill="#6de3bf" d="M 79.5,49.5 C 78.2101,50.0577 77.3768,51.0577 77,52.5C 75.5335,55.7584 74.3668,59.0917 73.5,62.5C 72.8747,60.4664 72.5413,58.4664 72.5,56.5C 72.9402,53.6202 73.9402,50.9535 75.5,48.5C 75.5,48.1667 75.5,47.8333 75.5,47.5C 76.7079,46.7659 78.0413,46.4326 79.5,46.5C 79.5,47.5 79.5,48.5 79.5,49.5 Z"/></g>
<g><path style="opacity:1" fill="#019477" d="M 81.5,39.5 C 81.4208,40.9305 81.7542,42.2638 82.5,43.5C 86.4292,47.0514 90.2625,50.718 94,54.5C 94.7796,56.3869 94.6129,58.0536 93.5,59.5C 93.5792,58.0695 93.2458,56.7362 92.5,55.5C 90.2573,54.5258 87.924,54.1924 85.5,54.5C 86.2259,50.693 84.8926,48.0263 81.5,46.5C 80.8478,45.2749 79.6811,44.6083 78,44.5C 76.8333,44.6667 75.6667,44.8333 74.5,45C 73.0836,47.8349 71.417,50.5015 69.5,53C 64.5,53.6667 59.5,53.6667 54.5,53C 54.2964,50.3787 54.2964,47.5453 54.5,44.5C 61.2512,44.2203 67.9179,43.7203 74.5,43C 77.4042,42.8672 79.7376,41.7005 81.5,39.5 Z"/></g>
<g><path style="opacity:1" fill="#12d385" d="M 79.5,49.5 C 80.1667,49.5 80.8333,49.5 81.5,49.5C 80.032,50.7791 79.3653,52.4458 79.5,54.5C 80.9587,54.5674 82.2921,54.2341 83.5,53.5C 85.0389,54.7671 86.7056,55.7671 88.5,56.5C 86.167,56.4516 83.8337,56.7849 81.5,57.5C 79.544,55.8249 78.2107,56.1582 77.5,58.5C 75.7549,60.0326 74.7549,62.0326 74.5,64.5C 73.6618,64.1583 73.3284,63.4916 73.5,62.5C 74.3668,59.0917 75.5335,55.7584 77,52.5C 77.3768,51.0577 78.2101,50.0577 79.5,49.5 Z"/></g>
<g><path style="opacity:1" fill="#79ebd0" d="M 81.5,49.5 C 83.1765,50.1834 83.8432,51.5168 83.5,53.5C 82.2921,54.2341 80.9587,54.5674 79.5,54.5C 79.3653,52.4458 80.032,50.7791 81.5,49.5 Z"/></g>
<g><path style="opacity:1" fill="#2d9a88" d="M 22.5,50.5 C 23.5,50.5 24.5,50.5 25.5,50.5C 26.4602,52.4607 27.7935,54.1274 29.5,55.5C 28.2528,57.323 27.5861,59.323 27.5,61.5C 27.3011,64.941 27.8011,68.2744 29,71.5C 31.2276,73.1134 33.7276,73.78 36.5,73.5C 33.4493,74.8319 30.4493,74.4986 27.5,72.5C 27.1667,72.5 26.8333,72.5 26.5,72.5C 25.6403,68.5662 25.307,64.5662 25.5,60.5C 24.448,60.6495 23.448,60.4828 22.5,60C 23.7525,58.1722 23.7525,56.3388 22.5,54.5C 22.5,53.1667 22.5,51.8333 22.5,50.5 Z"/></g>
<g><path style="opacity:1" fill="#10c192" d="M 38.5,45.5 C 36.9034,48.441 37.2367,51.1077 39.5,53.5C 38.7573,54.1818 38.0906,54.8485 37.5,55.5C 35.6923,54.6832 34.1923,55.3498 33,57.5C 31.9914,59.0249 31.4914,60.6916 31.5,62.5C 30.8529,63.2739 30.5195,64.2739 30.5,65.5C 30.3402,67.3545 31.0069,68.6879 32.5,69.5C 34.3469,70.5729 36.3469,70.5729 38.5,69.5C 40.698,69.1201 42.3646,69.7868 43.5,71.5C 40.7718,71.1706 38.4385,71.8372 36.5,73.5C 33.7276,73.78 31.2276,73.1134 29,71.5C 27.8011,68.2744 27.3011,64.941 27.5,61.5C 30.5614,55.5554 34.2281,50.2221 38.5,45.5 Z"/></g>
<g><path style="opacity:1" fill="#59deb0" d="M 53.5,66.5 C 53.189,67.4778 52.5223,68.1445 51.5,68.5C 50.4164,67.3349 49.5831,66.0016 49,64.5C 48.6667,64.8333 48.3333,65.1667 48,65.5C 47.5078,64.451 47.6744,63.451 48.5,62.5C 48.1543,61.3044 47.6543,61.3044 47,62.5C 46.5357,61.9056 46.369,61.2389 46.5,60.5C 47.3007,58.9582 47.634,57.2915 47.5,55.5C 49.5824,55.472 51.4157,56.1387 53,57.5C 52.8859,60.6862 53.0526,63.6862 53.5,66.5 Z"/></g>
<g><path style="opacity:1" fill="#0dcd8f" d="M 50.5,48.5 C 49.8505,50.4352 49.5172,52.4352 49.5,54.5C 56.8332,55.2965 64.1665,54.9632 71.5,53.5C 72.1539,51.1419 73.4872,49.4752 75.5,48.5C 73.9402,50.9535 72.9402,53.6202 72.5,56.5C 69.5794,56.1459 67.2461,57.1459 65.5,59.5C 63.2876,56.2388 60.6209,55.9055 57.5,58.5C 56.6618,58.8417 56.3284,59.5084 56.5,60.5C 54.9925,62.1815 53.9925,64.1815 53.5,66.5C 53.0526,63.6862 52.8859,60.6862 53,57.5C 51.4157,56.1387 49.5824,55.472 47.5,55.5C 47.634,57.2915 47.3007,58.9582 46.5,60.5C 44.4162,62.993 44.0829,65.6596 45.5,68.5C 48.1568,68.8582 51.1568,69.1915 54.5,69.5C 54.3893,70.1174 54.056,70.6174 53.5,71C 50.1832,71.4983 46.8499,71.665 43.5,71.5C 42.3646,69.7868 40.698,69.1201 38.5,69.5C 39.6005,68.3951 40.2671,67.0618 40.5,65.5C 43.5803,61.2933 45.9137,56.6266 47.5,51.5C 47.5,49.5 48.5,48.5 50.5,48.5 Z"/></g>
<g><path style="opacity:1" fill="#8fedd6" d="M 81.5,57.5 C 83.8337,56.7849 86.167,56.4516 88.5,56.5C 89.4916,56.3284 90.1583,56.6618 90.5,57.5C 88.9557,57.7031 87.6223,58.3698 86.5,59.5C 85.5,58.1667 84.5,58.1667 83.5,59.5C 82.8182,58.7573 82.1515,58.0906 81.5,57.5 Z"/></g>
<g><path style="opacity:1" fill="#79e5c9" d="M 37.5,55.5 C 37.205,57.4233 36.3717,59.0899 35,60.5C 34.6667,59.8333 34.3333,59.1667 34,58.5C 33.3918,60.0664 32.5585,61.3998 31.5,62.5C 31.4914,60.6916 31.9914,59.0249 33,57.5C 34.1923,55.3498 35.6923,54.6832 37.5,55.5 Z"/></g>
<g><path style="opacity:1" fill="#81eddb" d="M 81.5,57.5 C 80.8333,59.5 80.1667,61.5 79.5,63.5C 77.0155,62.0359 77.0155,60.3692 79.5,58.5C 79.0302,57.537 78.3635,57.537 77.5,58.5C 78.2107,56.1582 79.544,55.8249 81.5,57.5 Z"/></g>
<g><path style="opacity:1" fill="#23dc91" d="M 81.5,57.5 C 82.1515,58.0906 82.8182,58.7573 83.5,59.5C 84.5,58.1667 85.5,58.1667 86.5,59.5C 87.6223,58.3698 88.9557,57.7031 90.5,57.5C 87.7508,60.4647 84.9175,63.4647 82,66.5C 82,65.1667 82,63.8333 82,62.5C 80.6283,63.9101 79.795,65.5767 79.5,67.5C 78.3143,66.2946 78.3143,64.9613 79.5,63.5C 80.1667,61.5 80.8333,59.5 81.5,57.5 Z"/></g>
<g><path style="opacity:1" fill="#15d18f" d="M 50.5,43.5 C 50.5,44.1667 50.5,44.8333 50.5,45.5C 47.059,45.3011 43.7256,45.8011 40.5,47C 37.8059,49.5525 38.4726,50.7192 42.5,50.5C 43.0967,50.7352 43.4301,51.2352 43.5,52C 41.9248,56.2304 40.2581,60.3971 38.5,64.5C 35.4449,67.1308 33.9449,66.1308 34,61.5C 31.7781,64.5096 32.2781,67.0096 35.5,69C 34.552,69.4828 33.552,69.6495 32.5,69.5C 31.7814,67.2362 31.448,64.9029 31.5,62.5C 32.5585,61.3998 33.3918,60.0664 34,58.5C 34.3333,59.1667 34.6667,59.8333 35,60.5C 36.3717,59.0899 37.205,57.4233 37.5,55.5C 38.0906,54.8485 38.7573,54.1818 39.5,53.5C 37.2367,51.1077 36.9034,48.441 38.5,45.5C 39.1667,45.5 39.5,45.1667 39.5,44.5C 43.0991,43.6561 46.7657,43.3227 50.5,43.5 Z"/></g>
<g><path style="opacity:1" fill="#62dfb8" d="M 42.5,50.5 C 42.5,50.1667 42.5,49.8333 42.5,49.5C 43.609,49.5569 44.609,49.8902 45.5,50.5C 45.8333,50.5 46.1667,50.5 46.5,50.5C 46.5,51.1667 46.8333,51.5 47.5,51.5C 45.9137,56.6266 43.5803,61.2933 40.5,65.5C 39.0755,67.0311 38.4088,66.6977 38.5,64.5C 40.2581,60.3971 41.9248,56.2304 43.5,52C 43.4301,51.2352 43.0967,50.7352 42.5,50.5 Z"/></g>
<g><path style="opacity:1" fill="#77e9cc" d="M 90.5,57.5 C 91.0431,57.56 91.3764,57.8933 91.5,58.5C 88.5963,61.6345 86.9297,64.9678 86.5,68.5C 86.189,67.5222 85.5223,66.8555 84.5,66.5C 82.9291,67.3094 81.2624,67.6427 79.5,67.5C 79.795,65.5767 80.6283,63.9101 82,62.5C 82,63.8333 82,65.1667 82,66.5C 84.9175,63.4647 87.7508,60.4647 90.5,57.5 Z"/></g>
<g><path style="opacity:1" fill="#5a9182" d="M -0.5,55.5 C 0.314913,56.4293 1.14825,57.4293 2,58.5C 6.81444,57.2752 11.3144,57.9418 15.5,60.5C 16.0954,64.5378 16.7621,68.5378 17.5,72.5C 16.5,72.5 15.5,72.5 14.5,72.5C 13.3779,75.6343 13.3779,78.3009 14.5,80.5C 10.9129,80.8049 7.91289,79.6383 5.5,77C 5.95735,76.586 6.29069,76.086 6.5,75.5C 3.97634,74.4077 1.64301,73.0743 -0.5,71.5C -0.5,66.1667 -0.5,60.8333 -0.5,55.5 Z"/></g>
<g><path style="opacity:1" fill="#b5f6ea" d="M 31.5,62.5 C 31.448,64.9029 31.7814,67.2362 32.5,69.5C 31.0069,68.6879 30.3402,67.3545 30.5,65.5C 30.5195,64.2739 30.8529,63.2739 31.5,62.5 Z"/></g>
<g><path style="opacity:1" fill="#87ebd4" d="M 46.5,60.5 C 46.369,61.2389 46.5357,61.9056 47,62.5C 47.6543,61.3044 48.1543,61.3044 48.5,62.5C 47.6744,63.451 47.5078,64.451 48,65.5C 48.3333,65.1667 48.6667,64.8333 49,64.5C 49.5831,66.0016 50.4164,67.3349 51.5,68.5C 52.5223,68.1445 53.189,67.4778 53.5,66.5C 53.9925,64.1815 54.9925,62.1815 56.5,60.5C 55.5804,62.8809 55.5804,65.2143 56.5,67.5C 56.1445,68.5223 55.4778,69.189 54.5,69.5C 51.1568,69.1915 48.1568,68.8582 45.5,68.5C 44.0829,65.6596 44.4162,62.993 46.5,60.5 Z"/></g>
<g><path style="opacity:1" fill="#48dfa7" d="M 72.5,56.5 C 72.5413,58.4664 72.8747,60.4664 73.5,62.5C 73.3284,63.4916 73.6618,64.1583 74.5,64.5C 72.1544,65.2959 69.9877,65.2959 68,64.5C 66.6346,63.4071 66.3013,62.0738 67,60.5C 67.3333,61.1667 67.6667,61.8333 68,62.5C 68.8403,59.5363 69.8403,59.203 71,61.5C 71.658,59.892 71.158,58.7253 69.5,58C 70.7375,57.7679 71.7375,57.2679 72.5,56.5 Z"/></g>
<g><path style="opacity:1" fill="#81e7cc" d="M 38.5,64.5 C 38.4088,66.6977 39.0755,67.0311 40.5,65.5C 40.2671,67.0618 39.6005,68.3951 38.5,69.5C 36.3469,70.5729 34.3469,70.5729 32.5,69.5C 33.552,69.6495 34.552,69.4828 35.5,69C 32.2781,67.0096 31.7781,64.5096 34,61.5C 33.9449,66.1308 35.4449,67.1308 38.5,64.5 Z"/></g>
<g><path style="opacity:1" fill="#0fd294" d="M 58.5,63.5 C 60.5,63.5 62.5,63.5 64.5,63.5C 64.6287,65.2161 64.962,66.8828 65.5,68.5C 63.4489,66.4063 61.1155,66.073 58.5,67.5C 57.7084,66.3002 57.7084,64.9669 58.5,63.5 Z"/></g>
<g><path style="opacity:1" fill="#70e6c6" d="M 72.5,56.5 C 71.7375,57.2679 70.7375,57.7679 69.5,58C 71.158,58.7253 71.658,59.892 71,61.5C 69.8403,59.203 68.8403,59.5363 68,62.5C 67.6667,61.8333 67.3333,61.1667 67,60.5C 66.3013,62.0738 66.6346,63.4071 68,64.5C 69.9877,65.2959 72.1544,65.2959 74.5,64.5C 74.7549,62.0326 75.7549,60.0326 77.5,58.5C 78.3635,57.537 79.0302,57.537 79.5,58.5C 77.0155,60.3692 77.0155,62.0359 79.5,63.5C 78.3143,64.9613 78.3143,66.2946 79.5,67.5C 75.1473,68.2398 70.4806,68.5731 65.5,68.5C 64.962,66.8828 64.6287,65.2161 64.5,63.5C 62.5,63.5 60.5,63.5 58.5,63.5C 59.9516,62.6981 61.6183,62.1981 63.5,62C 62.0196,59.3321 60.5196,59.1655 59,61.5C 58.3828,60.5509 58.5494,59.7175 59.5,59C 58.9056,58.5357 58.2389,58.369 57.5,58.5C 60.6209,55.9055 63.2876,56.2388 65.5,59.5C 67.2461,57.1459 69.5794,56.1459 72.5,56.5 Z"/></g>
<g><path style="opacity:1" fill="#2bd79a" d="M 45.5,68.5 C 45.3443,62.6875 46.011,62.3541 47.5,67.5C 47.0431,68.2975 46.3764,68.6309 45.5,68.5 Z"/></g>
<g><path style="opacity:1" fill="#27c89d" d="M 57.5,58.5 C 58.2389,58.369 58.9056,58.5357 59.5,59C 58.5494,59.7175 58.3828,60.5509 59,61.5C 60.5196,59.1655 62.0196,59.3321 63.5,62C 61.6183,62.1981 59.9516,62.6981 58.5,63.5C 57.7084,64.9669 57.7084,66.3002 58.5,67.5C 61.1155,66.073 63.4489,66.4063 65.5,68.5C 70.2336,70.1446 75.2336,70.8112 80.5,70.5C 75.6946,71.4872 70.6946,71.8205 65.5,71.5C 63.9519,71.1788 63.2852,70.1788 63.5,68.5C 59.855,67.6797 57.5217,69.013 56.5,72.5C 52.5411,73.6599 48.5411,73.8265 44.5,73C 43.944,72.6174 43.6107,72.1174 43.5,71.5C 46.8499,71.665 50.1832,71.4983 53.5,71C 54.056,70.6174 54.3893,70.1174 54.5,69.5C 55.4778,69.189 56.1445,68.5223 56.5,67.5C 55.5804,65.2143 55.5804,62.8809 56.5,60.5C 56.3284,59.5084 56.6618,58.8417 57.5,58.5 Z"/></g>
<g><path style="opacity:1" fill="#499687" d="M 22.5,54.5 C 23.7525,56.3388 23.7525,58.1722 22.5,60C 23.448,60.4828 24.448,60.6495 25.5,60.5C 25.307,64.5662 25.6403,68.5662 26.5,72.5C 23.6143,72.8687 20.6143,72.8687 17.5,72.5C 16.7621,68.5378 16.0954,64.5378 15.5,60.5C 19.3753,60.1501 21.7087,58.1501 22.5,54.5 Z"/></g>
<g><path style="opacity:1" fill="#09cc8b" d="M 86.5,68.5 C 84.5,69.1667 82.5,69.8333 80.5,70.5C 75.2336,70.8112 70.2336,70.1446 65.5,68.5C 70.4806,68.5731 75.1473,68.2398 79.5,67.5C 81.2624,67.6427 82.9291,67.3094 84.5,66.5C 85.5223,66.8555 86.189,67.5222 86.5,68.5 Z"/></g>
<g><path style="opacity:1" fill="#0fa586" d="M 80.5,70.5 C 81.8333,70.5 82.5,71.1667 82.5,72.5C 80.1944,72.9926 77.861,73.3259 75.5,73.5C 72.1667,72.8333 68.8333,72.1667 65.5,71.5C 70.6946,71.8205 75.6946,71.4872 80.5,70.5 Z"/></g>
<g><path style="opacity:1" fill="#0cb175" d="M 96.5,73.5 C 93.8427,73.9348 91.5093,74.9348 89.5,76.5C 88.325,76.719 87.325,76.3857 86.5,75.5C 86.9569,74.7025 87.6236,74.3691 88.5,74.5C 90.484,73.8443 92.484,73.1776 94.5,72.5C 95.4164,72.5427 96.0831,72.8761 96.5,73.5 Z"/></g>
<g><path style="opacity:1" fill="#0b2c19" d="M 102.5,71.5 C 102.5,76.1667 102.5,80.8333 102.5,85.5C 101.167,85.5 99.8333,85.5 98.5,85.5C 98.5,83.1667 98.5,80.8333 98.5,78.5C 99.1496,76.5061 99.4829,74.5061 99.5,72.5C 100.391,71.8902 101.391,71.5569 102.5,71.5 Z"/></g>
<g><path style="opacity:1" fill="#57b1a5" d="M 65.5,71.5 C 68.8333,72.1667 72.1667,72.8333 75.5,73.5C 74.1667,73.5 72.8333,73.5 71.5,73.5C 71.5,74.5 71.5,75.5 71.5,76.5C 74.216,76.3862 76.216,77.3862 77.5,79.5C 76.0413,79.5674 74.7079,79.2341 73.5,78.5C 71.549,78.7733 70.049,78.1066 69,76.5C 68.3333,77.1667 67.6667,77.8333 67,78.5C 65.3523,76.9716 63.3523,76.3049 61,76.5C 55.2192,76.446 49.3859,76.6127 43.5,77C 42.9535,76.0754 42.2868,75.2421 41.5,74.5C 37.5575,75.5999 33.5575,75.7666 29.5,75C 28.244,74.5831 27.5774,73.7498 27.5,72.5C 30.4493,74.4986 33.4493,74.8319 36.5,73.5C 38.4385,71.8372 40.7718,71.1706 43.5,71.5C 43.6107,72.1174 43.944,72.6174 44.5,73C 48.5411,73.8265 52.5411,73.6599 56.5,72.5C 57.5217,69.013 59.855,67.6797 63.5,68.5C 63.2852,70.1788 63.9519,71.1788 65.5,71.5 Z"/></g>
<g><path style="opacity:1" fill="#359b8b" d="M 82.5,72.5 C 82.3284,73.4916 82.6618,74.1583 83.5,74.5C 83.5,76.1667 83.5,77.8333 83.5,79.5C 83.5,81.5 83.5,83.5 83.5,85.5C 83.1667,85.5 82.8333,85.5 82.5,85.5C 82.6241,82.0512 80.9574,80.0512 77.5,79.5C 76.216,77.3862 74.216,76.3862 71.5,76.5C 71.5,75.5 71.5,74.5 71.5,73.5C 72.8333,73.5 74.1667,73.5 75.5,73.5C 77.861,73.3259 80.1944,72.9926 82.5,72.5 Z"/></g>
<g><path style="opacity:1" fill="#265f34" d="M 84.5,71.5 C 86.6188,71.4677 87.9522,72.4677 88.5,74.5C 87.6236,74.3691 86.9569,74.7025 86.5,75.5C 87.325,76.3857 88.325,76.719 89.5,76.5C 89.1583,77.3382 88.4916,77.6716 87.5,77.5C 85.8007,77.5271 84.4674,78.1938 83.5,79.5C 83.5,77.8333 83.5,76.1667 83.5,74.5C 84.404,73.791 84.7373,72.791 84.5,71.5 Z"/></g>
<g><path style="opacity:1" fill="#14583f" d="M 99.5,72.5 C 99.4829,74.5061 99.1496,76.5061 98.5,78.5C 96.0122,76.6122 93.0122,75.9455 89.5,76.5C 91.5093,74.9348 93.8427,73.9348 96.5,73.5C 97.391,72.8902 98.391,72.5569 99.5,72.5 Z"/></g>
<g><path style="opacity:1" fill="#7c9c8c" d="M -0.5,71.5 C 1.64301,73.0743 3.97634,74.4077 6.5,75.5C 6.29069,76.086 5.95735,76.586 5.5,77C 7.91289,79.6383 10.9129,80.8049 14.5,80.5C 15.8333,80.5 17.1667,80.5 18.5,80.5C 18.8039,81.1499 19.1373,81.8165 19.5,82.5C 16.7051,82.9385 14.3717,83.9385 12.5,85.5C 8.16667,85.5 3.83333,85.5 -0.5,85.5C -0.5,80.8333 -0.5,76.1667 -0.5,71.5 Z"/></g>
<g><path style="opacity:1" fill="#2f3f21" d="M 87.5,77.5 C 87.5,80.1667 87.5,82.8333 87.5,85.5C 86.1667,85.5 84.8333,85.5 83.5,85.5C 83.5,83.5 83.5,81.5 83.5,79.5C 84.4674,78.1938 85.8007,77.5271 87.5,77.5 Z"/></g>
<g><path style="opacity:1" fill="#6baba4" d="M 26.5,72.5 C 26.8333,72.5 27.1667,72.5 27.5,72.5C 27.5774,73.7498 28.244,74.5831 29.5,75C 33.5575,75.7666 37.5575,75.5999 41.5,74.5C 42.2868,75.2421 42.9535,76.0754 43.5,77C 49.3859,76.6127 55.2192,76.446 61,76.5C 63.3523,76.3049 65.3523,76.9716 67,78.5C 67.6667,77.8333 68.3333,77.1667 69,76.5C 70.049,78.1066 71.549,78.7733 73.5,78.5C 72.0262,79.6751 70.3596,80.6751 68.5,81.5C 67.7542,82.7362 67.4208,84.0695 67.5,85.5C 60.8333,85.5 54.1667,85.5 47.5,85.5C 38.0859,83.9451 28.4192,82.2784 18.5,80.5C 17.1667,80.5 15.8333,80.5 14.5,80.5C 13.3779,78.3009 13.3779,75.6343 14.5,72.5C 15.5,72.5 16.5,72.5 17.5,72.5C 20.6143,72.8687 23.6143,72.8687 26.5,72.5 Z"/></g>
<g><path style="opacity:1" fill="#569e9a" d="M 73.5,78.5 C 74.7079,79.2341 76.0413,79.5674 77.5,79.5C 80.9574,80.0512 82.6241,82.0512 82.5,85.5C 77.5,85.5 72.5,85.5 67.5,85.5C 67.4208,84.0695 67.7542,82.7362 68.5,81.5C 70.3596,80.6751 72.0262,79.6751 73.5,78.5 Z"/></g>
<g><path style="opacity:1" fill="#0f6f61" d="M 89.5,76.5 C 93.0122,75.9455 96.0122,76.6122 98.5,78.5C 98.5,80.8333 98.5,83.1667 98.5,85.5C 94.8333,85.5 91.1667,85.5 87.5,85.5C 87.5,82.8333 87.5,80.1667 87.5,77.5C 88.4916,77.6716 89.1583,77.3382 89.5,76.5 Z"/></g>
<g><path style="opacity:1" fill="#86b0a5" d="M 18.5,80.5 C 28.4192,82.2784 38.0859,83.9451 47.5,85.5C 35.8333,85.5 24.1667,85.5 12.5,85.5C 14.3717,83.9385 16.7051,82.9385 19.5,82.5C 19.1373,81.8165 18.8039,81.1499 18.5,80.5 Z"/></g>
</svg>
